<svg width="27" height="27" viewBox="0 0 27 27" fill="none" xmlns="http://www.w3.org/2000/svg">
<path d="M0 0h27v27H0V0zm15.293 7.29c-1.267 0-2.295.425-3.083 1.275-.787.85-1.177 2.027-1.177 3.529v6.916c0 2.448 1.076 4.221 3.226 5.32 1.022.52 2.253.78 3.693.78 1.332 0 2.444-.233 3.338-.697.895-.465 1.57-1.125 2.025-1.978.455-.854.682-1.8.682-2.837v-4.81h-1.898v4.737c0 1.078-.347 1.943-1.04 2.595-.694.653-1.548.98-2.564.98-.933 0-1.732-.25-2.398-.747-1.208-.853-1.813-2.213-1.813-4.081v-2.956c.38.27.748.495 1.104.676.902.446 1.74.668 2.51.668 1.342 0 2.45-.437 3.325-1.31.875-.875 1.313-1.963 1.313-3.261 0-1.296-.44-2.383-1.32-3.26-.88-.875-1.985-1.31-3.325-1.31-1.4 0-2.586.487-3.559 1.46-.973.973-1.46 2.15-1.46 3.531h1.896c0-.816.276-1.511.827-2.084.55-.574 1.222-.86 2.016-.86.816 0 1.505.275 2.068.827.564.55.846 1.22.846 2.009 0 .79-.282 1.46-.846 2.01-.563.564-1.252.846-2.068.846-.56 0-1.2-.147-1.916-.44a9.6 9.6 0 01-1.598-.84v-5.77c0-.9.205-1.607.617-2.123.41-.514 1.007-.77 1.787-.77 1.1 0 1.783.4 2.05 1.197.135.376.2.885.2 1.526h1.896c0-1.154-.3-2.1-.9-2.842-.6-.744-1.35-1.296-2.25-1.657-.9-.36-1.9-.54-3-.54zM6.765 8.89H4.3v13.21h2.466V8.89zM4.299 3.898v3.092h2.466V3.898H4.3z" fill="#092E20"/>
</svg>
