<svg width="27" height="27" viewBox="0 0 27 27" fill="none" xmlns="http://www.w3.org/2000/svg">
<path d="M9.899 1c-1.23.014-2.51.082-3.532.436C4.128 2.011 3.507 2.617 3.507 4.042v3.154h7.898v1.578H3.899c-.917 0-1.791.377-2.444 1.036-.653.66-.975 1.552-.975 2.484v3.154c0 1.244.638 2.257 1.634 2.868 1.002.614 2.34.94 3.755.94h1.578c1.423 0 2.727-.854 2.727-2.278V17.5H7.657v-1.578h8.424v1.578c0 1.09.458 2.054 1.192 2.773.738.72 1.756 1.116 2.736 1.116 1.382 0 2.764-.397 3.403-1.199.639-.8.804-1.947.804-3.243v-3.154c0-1.243-.637-2.257-1.633-2.868-.996-.61-2.334-.937-3.747-.937H18.07c-1.422 0-2.726.854-2.726 2.278v2.273h-3.156V10.157h3.156v1.578h3.898c.917 0 1.791-.377 2.444-1.036.653-.66.975-1.552.975-2.484V6.358c0-1.243-.637-2.256-1.633-2.867-.996-.612-2.333-.938-3.747-.938h-3.898c-1.423 0-2.727.854-2.727 2.278V6.536h-3.156v-2.36c0-1.15-.457-2.062-1.191-2.781C12.507 1.462 11.489 1 10.508 1c-1.381 0-2.764.396-3.403 1.198C6.466 3 6.301 4.148 6.301 5.443v3.154h3.598v1.578H9.9z" fill="#3677A9"/>
<path d="M9.017 15.372c-.584 0-1.056.472-1.056 1.056 0 .585.472 1.057 1.056 1.057s1.057-.472 1.057-1.057c0-.584-.473-1.056-1.057-1.056zm8.698 3.225c-.583 0-1.056.473-1.056 1.057 0 .584.473 1.056 1.056 1.056s1.057-.472 1.057-1.056c0-.584-.473-1.057-1.057-1.057z" fill="#fff"/>
</svg>
