<svg width="27" height="27" viewBox="0 0 27 27" fill="none" xmlns="http://www.w3.org/2000/svg">
<path d="M13.5 0C6.037 0 0 6.037 0 13.5S6.037 27 13.5 27 27 20.963 27 13.5 20.963 0 13.5 0zm6.3 19.686c-.14.233-.487.327-.76.187-2.08-1.27-4.68-1.556-7.746-.842-.253.058-.56-.064-.686-.31-.127-.245-.023-.54.23-.625 3.344-.777 6.192-.448 8.46.94.27.15.33.498.18.76zM20.93 16.68c-.187.304-.58.426-.88.24-2.38-1.447-6.013-1.884-8.82-1.02-.328.1-.707-.058-.832-.396-.126-.337.056-.722.385-.83 3.217-.996 7.26-.498 9.907 1.22.307.184.406.608.24.885zm-.2-3.55c-.257.404-.76.563-1.175.306-2.736-1.76-7.214-2.28-10.586-1.236-.45.133-.93-.127-1.06-.578-.126-.45.13-.93.58-1.057 3.812-1.163 8.758-.552 11.93 1.44.42.26.56.788.308 1.126z" fill="#1DB954"/>
</svg>
