<svg xmlns="http://www.w3.org/2000/svg" width="64" height="64" viewBox="0 0 64 64">
  <path fill="#1DB954" d="M32 0C14.33 0 0 14.33 0 32s14.33 32 32 32 32-14.33 32-32S49.67 0 32 0zm14.35 46.57c-.61.95-1.88 1.23-2.82.61-7.73-4.85-17.47-5.93-29.15-3.21-1.12.24-2.24-.46-2.49-1.55-.24-1.09.46-2.24 1.55-2.49 12.68-2.83 23.77-1.61 32.53 3.61.92.56 1.18 1.82.38 2.94zM48.18 38c-.75 1.17-2.33 1.57-3.5.83-8.86-5.4-22.39-6.96-32.86-3.77-1.33.42-2.75-.35-3.17-1.69-.42-1.33.35-2.75 1.69-3.17 11.55-3.36 26.04-1.62 36.39 4.21 1.17.67 1.55 2.25.86 3.59zm-2.24-7.88C37.65 23.16 22.73 21.75 13.08 25.01c-1.54.54-3.27-.38-3.8-1.91-.54-1.54.38-3.27 1.91-3.8 11.21-3.78 27.08-2.06 38.64 4.41 1.42.75 1.96 2.57 1.21 4-.75 1.42-2.57 1.96-4 .22z"/>
</svg>
